# xmcd CD database file
#
# Track frame offsets:
#       150
#       5588
#       38949
#       61630
#       78514
#       98556
#       120064
#       139042
#       157869
#       189974
#       214277
#       254320
#
# Disc length: 3751 seconds
#
# Revision: 2
# Processed by: cddbd v1.5.1PL2 Copyright (c) Steve Scherf et al.
# Submitted via: CDex 1.51
#
DISCID=8b0ea50c
DTITLE=Angelight - Shamans City
DYEAR=2003
DGENRE=New Age
TTITLE0=Begining
TTITLE1=Shamans City
TTITLE2=Romantic Of Rain
TTITLE3=Flames Tongue
TTITLE4=Moon Road
TTITLE5=Dance Of The Sun
TTITLE6=Shamans Way
TTITLE7=Highway To The Heaven
TTITLE8=Star Nostalgy
TTITLE9=Silk Way
TTITLE10=Breathe Of The Eternity
TTITLE11=Water Of Life
EXTD=YEAR: 2003
EXTT0=
EXTT1=
EXTT2=
EXTT3=
EXTT4=
EXTT5=
EXTT6=
EXTT7=
EXTT8=
EXTT9=
EXTT10=
EXTT11=
PLAYORDER=
